{
	"asset":{
		"version":"2.0",
		"generator":"Maxon Cinema 4D 2024.3.2 (#200000219)"
	},
	"scenes":[{
		"nodes":[0]
	}],
	"nodes":[{
		"name":"Cube",
		"mesh":0
	}],
	"meshes":[{
		"name":"Cube",
		"primitives":[{
			"attributes":{
				"POSITION":1,
				"NORMAL":2,
				"TEXCOORD_0":3
			},
			"indices":0
		}]
	}],
	"accessors":[{
		"bufferView":0,
		"type":"SCALAR",
		"componentType":5123,
		"min":[0],
		"count":12642,
		"byteOffset":0,
		"max":[12641]
	},
	{
		"bufferView":1,
		"type":"VEC3",
		"componentType":5126,
		"min":[-0.4386121332645416,
		-0.46285203099250796,
		-0.5141513347625732],
		"count":12642,
		"byteOffset":0,
		"max":[0.438612163066864,
		0.8326241970062256,
		0.5141513347625732]
	},
	{
		"bufferView":1,
		"type":"VEC3",
		"componentType":5126,
		"min":[-0.9997041821479797,
		-0.9999866485595703,
		-0.999902069568634],
		"count":12642,
		"byteOffset":12,
		"max":[0.9997041821479797,
		0.9975382685661316,
		0.9998207092285156]
	},
	{
		"bufferView":1,
		"type":"VEC2",
		"componentType":5126,
		"min":[0.049309998750686648,
		0.004569999873638153],
		"count":12642,
		"byteOffset":24,
		"max":[0.6793100237846375,
		0.40231001377105715]
	}],
	"bufferViews":[{
		"buffer":0,
		"byteOffset":0,
		"byteLength":25284,
		"target":34963
	},
	{
		"buffer":0,
		"byteOffset":25284,
		"byteLength":404544,
		"target":34962,
		"byteStride":32
	}],
	"buffers":[{
		"uri":"data:application/octet-stream;base64,",
		"byteLength":429828
	}]
}